<?xml version="1.0" encoding="UTF-8" standalone="no"?>
<!-- Created with Inkscape (http://www.inkscape.org/) -->

<svg
   xmlns:dc="http://purl.org/dc/elements/1.1/"
   xmlns:cc="http://creativecommons.org/ns#"
   xmlns:rdf="http://www.w3.org/1999/02/22-rdf-syntax-ns#"
   xmlns:svg="http://www.w3.org/2000/svg"
   xmlns="http://www.w3.org/2000/svg"
   xmlns:sodipodi="http://sodipodi.sourceforge.net/DTD/sodipodi-0.dtd"
   xmlns:inkscape="http://www.inkscape.org/namespaces/inkscape"
   width="1276"
   height="1122.5197"
   viewBox="0 0 337.60833 297"
   version="1.1"
   id="svg665"
   inkscape:version="0.92.2 (30a58d1, 2017-08-07)"
   sodipodi:docname="map-restructure.svg">
  <defs
     id="defs659">
    <clipPath
       clipPathUnits="userSpaceOnUse"
       id="clipPath2433">
      <rect
         style="fill:#d9d0c9;fill-opacity:0.76963351;fill-rule:evenodd;stroke-width:0.99999994"
         id="rect2435"
         width="98"
         height="77.999992"
         x="2789.4998"
         y="383.26965" />
    </clipPath>
    <clipPath
       clipPathUnits="userSpaceOnUse"
       id="clipPath2577">
      <rect
         style="fill:#d9d0c9;fill-opacity:0.76963351;fill-rule:evenodd;stroke-width:0.26458332"
         id="rect2579"
         width="34.717857"
         height="16.897928"
         x="581.65869"
         y="28.340662" />
    </clipPath>
    <clipPath
       clipPathUnits="userSpaceOnUse"
       id="clipPath2625">
      <rect
         style="fill:#d9d0c9;fill-opacity:0.76963351;fill-rule:evenodd;stroke-width:0.26458332"
         id="rect2627"
         width="17.277832"
         height="22.122488"
         x="312.39301"
         y="-7.5354257" />
    </clipPath>
    <clipPath
       clipPathUnits="userSpaceOnUse"
       id="clipPath2637">
      <rect
         style="fill:#d9d0c9;fill-opacity:0.76963351;fill-rule:evenodd;stroke-width:0.26850027"
         id="rect2639"
         width="18.900249"
         height="25.837595"
         x="288.81015"
         y="11.341562" />
    </clipPath>
    <clipPath
       clipPathUnits="userSpaceOnUse"
       id="clipPath2637-0">
      <rect
         style="fill:#d9d0c9;fill-opacity:0.76963351;fill-rule:evenodd;stroke-width:0.26850027"
         id="rect2639-6"
         width="18.900249"
         height="25.837595"
         x="288.81015"
         y="11.341562" />
    </clipPath>
  </defs>
  <sodipodi:namedview
     id="base"
     pagecolor="#242f3e"
     bordercolor="#666666"
     borderopacity="1.0"
     inkscape:pageopacity="1"
     inkscape:pageshadow="2"
     inkscape:zoom="1.4142136"
     inkscape:cx="858.00038"
     inkscape:cy="874.34688"
     inkscape:document-units="mm"
     inkscape:current-layer="layer45"
     showgrid="false"
     units="px"
     inkscape:window-width="1301"
     inkscape:window-height="744"
     inkscape:window-x="65"
     inkscape:window-y="24"
     inkscape:window-maximized="1"
     inkscape:pagecheckerboard="false" />
  <metadata
     id="metadata662">
    <rdf:RDF>
      <cc:Work
         rdf:about="">
        <dc:format>image/svg+xml</dc:format>
        <dc:type
           rdf:resource="http://purl.org/dc/dcmitype/StillImage" />
        <dc:title />
      </cc:Work>
    </rdf:RDF>
  </metadata>
  <g
     inkscape:groupmode="layer"
     id="layer3"
     inkscape:label="background" />
  <g
     inkscape:label="Layer 1"
     inkscape:groupmode="layer"
     id="layer1"
     style="display:inline"
     sodipodi:insensitive="true">
    <g
       id="roads"
       inkscape:label="#g5573">
      <rect
         y="-32.276066"
         x="-5.6126604"
         height="344.24313"
         width="374.92569"
         id="rect5329"
         style="fill:#242f3e;fill-opacity:1;stroke-width:0.29662108" />
      <path
         sodipodi:nodetypes="ccccccccc"
         style="fill:none;stroke:#ffffff;stroke-width:0.81138885;stroke-linecap:round;stroke-linejoin:round"
         inkscape:connector-curvature="0"
         id="path396"
         d="m 39.385859,136.69266 2.015528,-4.13539 -0.482248,-1.62984 -1.131358,-0.87277 -1.39453,-0.87489 h -2.440517 l -1.831622,1.4852 -0.194028,3.07869 -0.119944,1.42381" />
      <path
         style="fill:none;stroke:#ffffff;stroke-width:0.81138885;stroke-linecap:round;stroke-linejoin:round"
         inkscape:connector-curvature="0"
         id="path390"
         d="m 116.84751,264.79899 0.44688,-2.26215 0.1093,-0.73707 2.32062,-11.51528 1.40821,-7.10674 0.0312,-0.31778 0.0528,-0.31667 0.0724,-0.31074 0.089,-0.31056 0.10462,-0.30115 0.12764,-0.2964 0.13744,-0.28853 0.15524,-0.28167 0.17449,-0.27132 0.18642,-0.25789 0.20061,-0.25232 0.21791,-0.23355 0.23016,-0.22814 0.24098,-0.20892 0.2542,-0.19482 0.26458,-0.18134 0.27293,-0.16605 0.28351,-0.15045 0.29214,-0.12999 0.29951,-0.11433 0.30426,-0.10126 0.31242,-0.0789 0.3129,-0.062 0.31662,-0.0434 0.32067,-0.0226 0.44472,-0.0125 0.71068,0.0963 0.7179,0.0757 0.71397,0.0508 0.71867,0.0328 0.72029,0.0128 0.71696,-0.0108 0.72266,-0.0271 0.88239,-0.0318 0.21032,-0.0409 0.20067,-0.0633 0.19682,-0.0771 0.18863,-0.0978 0.18029,-0.11317 0.17105,-0.12929 0.15245,-0.14398 0.14426,-0.15883 0.12605,-0.16897 0.11599,-0.18003 0.0939,-0.19009 0.0736,-0.19865 0.062,-0.20583 0.0413,-0.20468 0.0202,-0.21615 0.003,-0.21079 0.38781,-20.38096 0.39781,-13.42548"
         sodipodi:nodetypes="ccccccccccccccccccccccccccccccccccccccccccccccccccccccccc" />
      <path
         sodipodi:nodetypes="ccccccccccccccccccccccccccccccccccccccccccccccccc"
         style="fill:none;stroke:#ffffff;stroke-width:0.81138885;stroke-linecap:round;stroke-linejoin:round"
         inkscape:connector-curvature="0"
         id="path366"
         d="m 65.770916,124.55457 -2.32586,-6.16332 -0.3265,-13.27448 -1.2985,-2.22552 -2.7445,-1.44445 -11.76694,0.74206 -5.29487,-1.0511 -1.84594,-0.33067 m 258.166394,-1.20342 -13.23705,1.23497 m -96.27827,164.4907 0.0754,-7.74303 0.13292,-21.39825 0.20276,-18.35997 M 298.3342,99.60367 l 29.70219,-1.88032 15.19885,-0.82333 m -250.483016,4.13836 -4.420288,-1.29246 -12.22921,0.57183 m -34.701339,32.23952 0.162159,0.19301 5.07141,-1.87426 4.33483,-0.3298 8.64696,-0.79504 m 30.77791,-3.0383 0.53705,-0.16018 0.44328,-0.34938 0.28552,-0.48461 0.0917,-0.55403 -0.11948,-0.55104 -0.37686,-0.53113 -0.56184,-0.32378 -0.32135,-0.0545 -0.32745,-0.003 -0.61286,0.21623 -0.46678,0.45438 -0.21639,0.52481 -0.0123,0.56731 0.20115,0.53329 0.38216,0.42032 0.51016,0.25237 0.56465,0.0444 m -46.52001,31.98569 24.64515,-1.30065 m 142.895014,-94.222934 -6.57234,-0.09678 h -3.1805 l -2.56076,0.105751" />
      <path
         style="fill:none;stroke:#ffffff;stroke-width:0.81138885;stroke-linecap:round;stroke-linejoin:round"
         inkscape:connector-curvature="0"
         id="path320"
         d="m 9.008292,173.26701 4.478339,-5.35622 6.734692,5.03323 4.566932,3.23997 2.451009,3.9413 0.260272,7.11996 -1.490438,13.44556 2.013755,14.33767 0.411274,2.17995 -1.502442,1.55383 -2.050056,0.44438 -2.629365,-0.53077 -0.703012,-2.66934 0.559155,-15.20507 -0.558703,-2.60707 -3.132073,-14.64785 -3.51646,-5.7372 -5.892884,-4.54231 -20.355392,0.26067 -7.528204,0.098 -4.055183,-7.53428 -4.218238,-7.83723 -2.420892,-4.49936 -6.18366,-12.45242 -0.735247,-1.48312" />
      <path
         style="fill:none;stroke:#ffffff;stroke-width:3.1044445;stroke-linecap:round;stroke-linejoin:round"
         inkscape:connector-curvature="0"
         id="path422"
         d="m 83.226066,64.533619 0.276568,-0.609264 0.297646,-0.526769 0.442905,-0.945065 0.292327,-0.95095 0.109578,-0.676336 0.04848,-0.909882 -0.29551,-1.093067 -0.476873,-0.878447 -0.838123,-1.03395 -1.07531,-1.032183 -1.061301,-1.239647 m -6.830221,-0.276198 -3.297295,0.154517 -1.397209,0.20194 -2.180488,0.373319 m 155.05112,-16.639295 5.67343,1.912942 3.47897,0.07081 4.07793,-0.882632 3.00472,-1.290908 6.2262,-2.816068 2.86245,-0.33571 3.67798,-0.153294 4.45136,0.238108 2.14824,-0.09586 m 27.13493,145.42017 2.89384,0.35913 4.61028,-0.81113 7.89482,-3.30483 9.71882,-5.03462 7.83749,-2.1531 8.59761,-0.54014 m -41.917,-20.48494 0.30499,2.56539 -0.20464,2.71132 m -95.94602,111.503 2.78277,-0.11652 34.4433,0.62322 21.1073,-0.22996 35.01174,0.32407 3.10708,0.029 M 33.900632,173.1074 l 12.141494,8.6223 10.493139,7.50941 11.10275,12.72421 6.092332,12.48433 4.529128,15.43258 3.364284,8.82402 2.626665,5.954 6.721939,7.36302 7.940044,6.24809 7.725583,4.75331 1.95878,0.54827 6.98513,2.34114 3.47233,0.64375 2.44261,0.15028 45.66448,-0.47881 16.1939,-0.89996 5.46366,0.002 m 69.07451,-230.2302 -2.46707,-1.004208 -2.47759,-0.883647 -7.84347,-2.115498 -8.51546,-2.092805 -2.94681,-0.674159 M 105.8125,59.048191 99.423675,56.884369 96.607167,56.127713 90.200427,55.368348 84.731824,54.7277 80.946269,54.637583 m -76.5899978,82.485937 9.3968728,-0.1193 3.596858,-1.42988"
         sodipodi:nodetypes="ccccccccccccccccccccccccccccccccccccccccccccccccccccccccccccccccccccccccccc" />
      <path
         style="fill:none;stroke:#ffffff;stroke-width:3.1044445;stroke-linecap:round;stroke-linejoin:round"
         inkscape:connector-curvature="0"
         id="path420"
         d="m 44.487232,73.322169 0.665831,-1.07152 0.878855,-1.553933 0.840396,-1.068048 1.222097,-1.191347 0.969773,-0.894377 0.924551,-0.664968 0.756241,-0.500438 0.650936,-0.361093 0.828246,-0.350951 0.83929,-0.31233 0.618223,-0.206585 0.801153,-0.202915 1.183937,-0.155779 0.932464,-0.151974 1.475316,-0.0045 1.724103,0.06228 1.336642,0.180409 1.489468,0.281401 1.647083,0.291085 3.346673,0.992471 m 166.02453,-38.108981 -0.23306,-12.651841 -0.34797,-17.2787328 -0.61635,-13.4791352 -0.13763,-3.020584 m -164.689431,84.538673 1.390276,0.386934 1.961953,0.336331 1.436735,0.186668 1.36763,0.06278 1.286327,-0.03616 1.163362,-0.125108 0.936372,-0.208281 0.745752,-0.196228 0.600075,-0.195061 0.703046,-0.162288 0.805259,-0.256211 0.986981,-0.401508 0.83101,-0.56514 1.392887,-0.730695 m -50.898977,42.941721 -7.548673,8.11037 -4.281066,8.24441 -3.147439,11.74456 m 88.462551,-76.52615 13.20965,4.016749 14.43499,0.633831 m 92.66754,-35.193956 -3.01188,1.530967 -1.71804,2.126503 -0.51909,2.252408 0.11041,1.977077 1.30548,2.06045 m -33.47318,226.877131 -2.68072,3.0058 -0.0501,4.97785 m -222.576249,-133.49492 3.001247,-0.57045 7.749627,-1.47179 30.0940422,-0.6527 m 62.8846818,-82.032002 -0.935978,0.784787 -0.389925,0.208767 -1.121027,0.914102 -0.62355,1.084098 -0.391039,1.26059 -0.281305,0.895331 -0.15472,1.006703 0.105219,1.051052 0.495815,0.965791 0.992525,1.276548 2.680744,1.898403 m 13.32781,-11.800014 -2.99136,-0.332209 -3.83889,0.05599 M 228.44512,28.167601 226.1243,28.505383 m 1.66966,-46.75526 -0.006,2.248478 -0.0362,14.3418175 0.51126,17.5792335 0.18231,12.247949 m 55.51606,89.095599 0.70274,31.28693 m -95.09692,173.77261 -0.18697,-6.74225 0.1788,-22.29569 m -3.47092,-19.97118 0.0167,18.50006 m -52.64744,-228.114551 13.62493,-1.789494 9.15931,-3.332038 5.55149,-2.785308 4.68118,-2.534513 16.97221,-12.994097 8.15816,-4.773542 m 93.66654,230.469923 0.0313,-2.48283 0.13829,-10.08352 -0.45428,-39.22938 0.0418,-33.64479" />
      <path
         style="fill:none;stroke:#ffffff;stroke-width:3.1044445;stroke-linecap:round;stroke-linejoin:round"
         inkscape:connector-curvature="0"
         id="path416"
         d="m 325.80307,163.81225 -2.2985,-0.0753 -6.74586,-0.74693 -10.07039,-3.0052 -2.77009,-1.5547 -2.8943,-1.52583 -3.19689,-1.42199 -3.67282,-1.09384 -5.19984,-0.67015 -4.18957,0.10863 m -250.86413,19.28024 -7.608838,-7.19483 -4.011049,-6.53351 -4.068868,-10.76385 -0.596491,-9.03 -0.265431,-4.01066 M 226.12458,28.505225 l -9.85352,1.352261 -11.63264,1.494396 -2.73207,0.524403 -10.30207,3.613895 m -147.117076,37.831995 -0.717453,2.670748 -0.379088,5.126787 -0.0633,5.908605 -2.101872,9.708001 -1.199714,2.007899 -2.682915,3.525605 -5.015878,5.20558 m 50.899007,-42.941833 1.841839,-0.848658 1.438483,-0.87397 1.165212,-0.70655 0.954919,-0.594 1.541941,-0.763994 1.915511,-0.809366 1.581541,-0.481971 1.371328,-0.249757 1.555186,-0.305728 1.443016,-0.123491 1.100679,-0.107356 2.939194,0.05639 3.73752,0.323506 m 178.64678,31.485874 -0.22748,8.534054 -0.27041,18.19471 m -266.611503,18.31189 -2.735087,-1.30162 -17.1166325,0.39188 -10.4857765,0.0576 -9.553746,-0.005" />
      <path
         style="fill:none;stroke:#ffffff;stroke-width:3.1044445;stroke-linecap:round;stroke-linejoin:round"
         inkscape:connector-curvature="0"
         id="path418"
         d="m 191.60424,35.489809 10.25524,-2.748024 6.91665,-0.05328 8.49888,3.153537 5.01691,2.60988 m 11.3509,-10.122831 -5.19753,-0.16164 m -42.34077,263.645519 -0.10201,23.51527 0.12242,3.26899 0.48181,3.75304 m 2.95165,-29.06591 -0.25483,-24.92701 -0.48487,-3.02767 m 49.70847,-227.067819 1.58323,-2.439825 0.45728,-2.26235 -0.26754,-1.703177 -1.34584,-1.292796 -2.36458,-1.560412 m 21.30357,6.09612 1.41976,0.948544 10.92826,9.455538 7.0179,10.11309 4.68391,11.207487 2.13112,20.072051 0.38494,3.63804 m -307.000321,44.183399 -2.502632,0.15069 -9.235749,1.04461 -3.2966,0.37449 M 67.240788,55.091207 66.157,55.18526 l -1.389004,0.24592 -2.420616,0.69602 -1.390038,0.446979 -1.658176,0.714626 -1.770555,0.85408 -1.59265,0.905639 -1.015551,0.578935 -1.563976,1.065136 -1.298847,0.966024 -1.512812,1.244202 -1.264097,1.433585 -1.72408,2.001011 -2.728022,4.573433 -0.384214,1.140749 0.04266,1.269507 m 240.541098,107.198404 0.0539,-13.0021 -0.31774,-13.69051" />
      <path
         sodipodi:nodetypes="ccccccccccccccccccccccccccccccccccccccccccccccccccccccccccccccccccccccccccccccccccccccccccccc"
         style="fill:none;stroke:#ffffff;stroke-width:1.69333339;stroke-linecap:round;stroke-linejoin:round"
         inkscape:connector-curvature="0"
         id="path410"
         d="m 254.8898,180.70206 7.34476,0.10201 22.8399,-0.28551 m -0.31018,-26.69166 -16.0624,0.61128 -10.79767,0.16924 m 0,0 -34.09723,-0.0666 -13.00055,0.17308 -5.33564,1.01086 -2.12015,1.88861 -0.85091,2.82897 -0.21462,8.05554 0.15109,9.0877 1.95625,2.97247 2.09335,0.75073 3.88576,-0.0473 13.56037,0.0299 25.68813,-0.42491 1.50365,-0.0694 3.76609,-0.095 m 10.50236,-62.69895 18.50491,-0.73881 M 67.465844,66.816684 l 0.08561,0.958053 0.172364,0.311183 0.154464,0.323169 0.138778,0.331418 0.11916,0.335523 0.10277,0.342434 0.08702,0.345898 0.06546,0.351621 0.04725,0.354694 0.01468,0.649708 0.07079,0.265267 0.0871,0.258701 0.108259,0.250618 0.121883,0.244358 0.138247,0.236317 0.156884,0.223089 0.167676,0.215224 0.183769,0.19939 0.195504,0.193314 0.210841,0.171358 0.222383,0.162195 0.231555,0.144893 0.242412,0.126881 0.246238,0.110238 0.257069,0.09352 0.261788,0.07635 0.266824,0.06064 0.270551,0.03689 0.272361,0.02209 0.272063,0.0031 0.272101,-0.01559 0.313086,-0.03346 7.755761,-0.272641 m -9.137617,201.355973 -0.811484,-3.28718 0.714487,-6.81797 0.729063,-3.78529 3.311799,-12.03998 2.353575,-7.4363 1.008535,-1.72046 1.581393,-1.32669 1.243683,0.22322 M 423.5816,86.737378 l -3.11249,0.134732 -29.40007,0.897931 -20.15601,-0.08656 -7.75209,-0.01548 -1.12207,-0.06381 -0.89798,-0.04897 -1.01006,-0.06045 -3.83644,0.09947 -28.68037,1.234374 -1.7328,-0.09493 -28.18396,1.621677 -13.34894,0.179184 m -97.44798,231.986434 2.96053,-0.0329 2.72226,0.10102 11.82925,-0.1091 11.16901,-0.1023 12.13928,-0.13239 12.3582,-0.033 12.13907,-0.2819 11.75154,0.35064 11.7152,-0.29663 11.87313,0.20707 16.34841,-0.46514 11.32168,-0.34698 2.93289,0.0207" />
      <path
         sodipodi:nodetypes="ccccccccccccccccccccccccccccccccccccccccccccccccccccccccccccccccccccccccccccccccccccccccccccccccccccccccccccccccccccccccccccccccccccccccccccccccc"
         style="fill:none;stroke:#ffffff;stroke-width:1.69333339;stroke-linecap:round;stroke-linejoin:round"
         inkscape:connector-curvature="0"
         id="path412"
         d="m 96.461806,99.675065 -1.125411,-10.283912 -0.22688,-8.189152 -0.34057,-2.355125 -0.009,-0.314221 -0.0282,-0.308176 -0.0426,-0.307044 -0.0654,-0.309587 -0.0786,-0.299222 -0.0991,-0.298485 -0.11555,-0.291711 -0.13197,-0.283815 -0.14587,-0.27221 -0.16273,-0.268883 -0.1815,-0.255802 -0.19202,-0.24315 -0.20598,-0.235991 -0.22061,-0.217213 -0.23649,-0.20621 -0.24136,-0.195161 -0.25522,-0.178733 -0.26508,-0.165845 -0.27536,-0.149118 -0.2825,-0.128091 -0.28592,-0.12067 -0.29832,-0.09439 -0.30259,-0.0842 -0.30052,-0.06315 -0.31059,-0.046 -0.31054,-0.02548 -0.31082,-0.01023 -0.31206,0.0072 -8.3239,0.411839 m 164.284385,142.280953 0.0285,2.32467 0.54014,45.68184 0.0355,2.93768 m -216.157983,1.1051 0.807205,0.1916 0.816414,0.17248 0.813942,0.15628 0.822503,0.13323 0.821129,0.11852 0.827784,0.0971 0.829794,0.0805 0.830201,0.061 0.826461,0.0392 0.833682,0.0225 0.832732,7.2e-4 0.829171,-0.0116 0.832756,-0.0379 0.830791,-0.0544 0.828813,-0.0709 0.82534,-0.0933 0.827914,-0.11138 0.800776,-0.12999 1.03135,-0.1819 1.036128,-0.16135 1.03928,-0.13785 1.045314,-0.11423 1.042144,-0.0905 1.005288,-0.0689 0.39765,-0.047 0.404095,-0.0308 0.40052,-0.0141 0.399999,0.007 0.403022,0.021 0.397236,0.0439 0.397821,0.0609 0.390831,0.0791 0.390545,0.0933 0.388512,0.11559 0.379154,0.13174 0.371756,0.1499 0.366404,0.16502 0.360627,0.17664 14.835273,2.97743 m 153.729126,-4.75947 -0.0497,-2.16622 0.007,-1.07736 -0.23992,-17.52551 -0.246,-25.42098 0.33288,-3.39836 2.64583,-1.5875 m 34.78677,107.8453 0.0141,2.93412 0.11435,23.34185 -0.26393,12.49611 m 22.19993,-146.70086 34.96465,0.16443 M 80.777865,73.893553 l -1.69897,-2.493401 0.0393,-4.568936 m 247.818365,-26.904204 0.10066,-0.116788 0.24318,-0.244008 -0.20474,-1.778306 v 0 l 1.00247,1.134629 0.28914,-0.186796 0.29518,-0.169088 0.30729,-0.156901 0.31418,-0.137094 0.31885,-0.118686 0.32727,-0.09915 0.33112,-0.08875 0.33286,-0.06681 0.3375,-0.04806 0.3429,-0.03203 0.34406,-0.01285 0.33848,0.0054 0.34504,0.0261 0.33773,-0.0019 28.23508,-0.249966 m -253.74614,226.529832 -0.71236,2.35413 -1.33001,4.1703 -0.21994,13.11639 1.35141,3.19577 3.42242,1.50891 5.84288,-0.071 7.84998,-0.096 7.73921,-0.0922 4.63793,-0.0547 4.62616,-0.0538 7.93436,-0.0994 7.53352,-0.0901 6.80057,-0.0807 1.65698,-0.97932 1.00511,-2.19567 0.36722,-9.85352 0.0964,-5.34972 -0.0574,-2.26411 m 160.20811,-178.447365 -0.29138,-48.068912 1.34672,-0.737761 -1.16267,0.07802 0.11742,-0.323051 0.13783,-0.313471 0.15351,-0.309053 0.16761,-0.294782 0.18448,-0.290733 0.20169,-0.278456 5.9033,-0.35956 -0.33773,0.0019" />
      <path
         sodipodi:nodetypes="ccccccccccccccccccccccccccccccccccccccc"
         style="fill:none;stroke:#ffffff;stroke-width:1.69333339;stroke-linecap:round;stroke-linejoin:round"
         inkscape:connector-curvature="0"
         id="path414"
         d="m 227.00866,216.02652 18.05427,0.14756 38.79695,-0.23104 m -45.56226,106.04014 -0.13385,26.79486 0.32349,12.69488 0.10272,2.57198 -0.17684,8.89318 -0.20767,12.29851 -0.26357,27.96852 0.0798,10.3391 0.21025,3.4076 0.15647,2.5047 m 27.00382,-311.45371 -7.71221,-1.55515 -10.47916,2.24886 -12.70349,0.8801 -0.92904,0.0646 -4.32871,2.60643 -2.16429,2.33709 -1.03397,1.87845 -0.26148,2.08001 -0.0862,1.68266 0.47567,1.27241 1.16433,1.2594 1.04035,0.96511 1.48639,0.27588 1.63252,-0.004 23.81242,-0.32979 1.95878,0.004 1.72298,-0.4604 1.12537,-1.06512 1.19049,-0.96185 1.93924,-1.40432 1.20344,-1.83807 0.0237,-1.98594 0.0476,-2.61372 0.49772,-3.02772 0.37747,-2.30861" />
      <path
         style="fill:none;stroke:#ffffff;stroke-width:0.81138885;stroke-linecap:round;stroke-linejoin:round"
         inkscape:connector-curvature="0"
         id="path362"
         d="m 200.47573,98.263323 2.03112,-0.2118 0.44944,0.01 20.78958,-1.183134 2.54411,2.145504 6.60545,-0.5726 -0.2496,-4.610618 -7.25099,0.326595 -1.18646,1.17037 -0.46287,1.540657 m -21.18178,-41.468896 28.92577,-0.677966 -0.0144,-5.871511 -0.006,-1.613668 0.10469,-5.481606 -0.12903,-1.328556" />
      <path
         sodipodi:nodetypes="cccccccccccccccccccccccccccccccccccccccccccccccccccccccccccccc"
         style="fill:none;stroke:#ffffff;stroke-width:0.81138885;stroke-linecap:round;stroke-linejoin:round"
         inkscape:connector-curvature="0"
         id="path400"
         d="m 251.95986,323.12612 -0.21799,26.94211 m 33.68192,-231.32389 4.90143,0.45521 7.18689,0.56452 10.94928,1.64688 6.52631,0.67388 8.92194,-0.16702 16.15732,-0.21483 8.61641,-0.12944 1.06747,28.37986 0.36236,7.77978 0.45839,7.8652 m -64.61833,89.28342 3.12805,-0.7354 4.14893,-0.29786 4.05323,-0.40351 5.00741,0.0854 4.53985,-0.43621 3.86493,0.11227 4.75997,0.88896 1.91105,0.32048 m -150.08647,-151.80531 17.5411,-0.42848 3.87173,-0.55562 2.20127,-0.31271 3.09157,-1.26523 2.31053,-0.925955 1.6554,-0.664051 2.52392,-0.195251 m -71.1868,17.405487 -0.5446,-12.82595 -1.54597,-2.59674 -2.16881,-0.560966 -7.83488,-0.631378 -18.618133,0.524179 -2.114731,0.09711 0.727604,0.23151 -2.215157,0.750375 -2.222029,0.38143 -0.253788,4.91792 -0.575749,12.66193 -1.228661,5.1405 m 10.631414,-54.99369 -0.4972,1.018136 -2.597232,-0.03593 -2.331533,1.43267 -3.28751,3.360079 m -83.616954,28.843555 4.133773,0.01 2.028472,0.006 12.631371,0.0592 3.158975,0.77549 2.916669,2.96528 m 197.911409,-59.105396 17.89119,-0.111087 9.06559,-0.208685 2.03671,-0.04465 2.85376,1.078704 1.12185,1.69757 1.74665,3.143575 0.0722,13.357332" />
      <path
         style="fill:none;stroke:#ffffff;stroke-width:0.81138885;stroke-linecap:round;stroke-linejoin:round"
         inkscape:connector-curvature="0"
         id="path382"
         d="m 198.98116,98.164203 -0.0123,-6.237749 -0.009,-8.647563 -0.0674,-4.912542 0.11225,-9.175202 -0.0685,-4.715883 0.6111,-6.056742 1.03145,-1.733878 1.98497,-1.275243 m 17.10923,-39.408278 9.26736,0.913579 5.1481,-0.205626 2.60517,0.0096 7.21933,0.02404" />
      <path
         sodipodi:nodetypes="cccccccc"
         style="fill:none;stroke:#ffffff;stroke-width:0.81138885;stroke-linecap:round;stroke-linejoin:round"
         inkscape:connector-curvature="0"
         id="path394"
         d="m 295.02438,68.682133 1.37983,14.763662 0.24895,2.68573 0.48686,4.214497 m -278.046239,45.879828 3.127708,-0.226 11.585651,-0.83238 5.578719,1.52519" />
      <path
         style="fill:none;stroke:#ffffff;stroke-width:0.81138885;stroke-linecap:round;stroke-linejoin:round"
         inkscape:connector-curvature="0"
         id="path374"
         d="m 39.385859,136.69266 1.009479,2.00481 0.866946,0.75642 0.776148,2.58456 1.081529,13.75075 0.205913,2.62052 1.230882,3.02059 2.594283,0.47466 3.438745,0.27185 24.120471,-0.2961 24.85213,0.5082 22.748775,-0.80475 4.94621,-0.85093 3.98635,-1.60849 7.61259,-1.36601 4.94492,0.46857 m -17.33285,41.09661 1.22127,9.06569 -0.0192,6.73646 -6.18791,26.49478" />
    </g>
    <path
       inkscape:connector-curvature="0"
       style="fill:none;stroke:#ffffff;stroke-width:0.81138891;stroke-linecap:round;stroke-linejoin:round"
       d="m 223.7293,244.51888 -13.7048,0.1747"
       id="path378" />
  </g>
  <g
     inkscape:groupmode="layer"
     id="layer35"
     inkscape:label="health-and -nursing">
    <path
       id="health-and-science"
       style="fill:#d9d0c9;fill-rule:evenodd;stroke:#b9a99c;stroke-width:0.26458332"
       d="m 165.50136,209.52481 -5.49531,-0.43252 0.0821,4.44192 -14.75521,-0.37977 -0.97487,-9.531 -5.0527,0.0996 0.60095,16.85403 25.46811,0.1595 z"
       inkscape:connector-curvature="0"
       inkscape:label="#path112-62" />
  </g>
  <g
     inkscape:groupmode="layer"
     id="layer28"
     inkscape:label="berge"
     style="display:inline">
    <path
       id="path112-0"
       style="fill:#d9d0c9;fill-rule:evenodd;stroke:#b9a99c;stroke-width:0.26458332"
       d="m 126.95847,165.0663 -22.37985,0.33614 7.31424,16.68327 14.65317,0.35048 z"
       inkscape:connector-curvature="0" />
  </g>
  <g
     inkscape:groupmode="layer"
     id="layer27"
     inkscape:label="petrie-science-building"
     style="display:inline">
    <path
       id="petrie-science-building"
       style="fill:#d9d0c9;fill-rule:evenodd;stroke:#b9a99c;stroke-width:0.26458332"
       d="m 134.35905,122.0303 -13.97083,0.27156 0.2874,14.65272 13.96984,-0.27184 z"
       inkscape:connector-curvature="0" />
  </g>
  <g
     inkscape:groupmode="layer"
     id="layer21"
     inkscape:label="bethune-college"
     style="display:inline">
    <path
       id="bethune-college"
       style="fill:#d9d0c9;fill-rule:evenodd;stroke:#b9a99c;stroke-width:0.26458332"
       d="m 81.827571,124.67326 -12.274907,0.11367 0.05471,4.66243 9.004257,-0.30709 -0.07337,3.48872 -2.745976,2.88326 -6.547777,0.32407 -0.104955,3.84464 12.756681,-0.14897 z"
       inkscape:label="#path112-9"
       inkscape:connector-curvature="0" />
  </g>
  <g
     inkscape:groupmode="layer"
     id="layer4"
     inkscape:label="tait"
     style="display:inline">
    <path
       id="tait-mckenzie"
       transform="scale(0.26458333)"
       style="fill:#d9d0c9;fill-rule:evenodd;stroke:#b9a99c;stroke-width:0.99999994"
       d="m 220.86914,296.73438 -0.008,41.77929 43.80469,0.006 -0.0117,25.04688 75.80273,0.0156 0.0137,-66.83398 z"
       inkscape:connector-curvature="0" />
  </g>
  <g
     inkscape:groupmode="layer"
     id="layer5"
     inkscape:label="seneca"
     style="display:inline">
    <path
       id="seneca"
       transform="scale(0.26458333)"
       style="fill:#d9d0c9;fill-rule:evenodd;stroke:#b9a99c;stroke-width:0.99999994"
       d="m 953.80859,826.61523 -0.67578,2.6543 -8.68554,0.20313 -1.28907,37.10351 -1.72265,0.008 1.16797,18 -3.125,21.74805 2.7539,-0.24023 1.05469,46.80664 0.63672,27.84179 13.28515,0.91797 2.9336,12.63868 91.73042,-11.75977 -18.9902,-3.37305 -1.4004,-6.19336 20.4278,2.01563 3.6933,-12.65039 3.6758,-97.20899 -30.9277,4.95117 -0.2032,6.44141 -13.3476,-0.17187 -2.6914,1.79492 -2.4551,4.55078 -0.9043,4.49414 2.377,4.41016 16.5957,7.18359 -2.0977,48.32422 -51.01953,-0.88477 -8.9375,-92.38086 86.08003,0.27149 1.2012,-2.93555 3.5508,-2.66406 2.5273,-5.40039 -0.027,-3.9336 -1.9668,-3.32226 0.1445,-5.69141 -1.957,-0.45312 -0.1328,-2.52539 -40.6191,-0.22852 c -2.2555,2.16064 -4.658,1.7261 -7.2305,-0.041 z"
       inkscape:connector-curvature="0" />
  </g>
  <g
     inkscape:groupmode="layer"
     id="layer6"
     inkscape:label="victor-db"
     style="display:inline">
    <path
       id="victor-db"
       style="display:inline;fill:#d9d0c9;fill-rule:evenodd;stroke:#b9a99c;stroke-width:0.26458332"
       d="m 241.33518,219.62063 -13.02167,-0.0174 -0.0173,11.00716 -0.37614,4.7e-4 -0.0393,31.14201 13.39891,0.0165 -0.57956,-9.61682 0.0278,-1.39947 z"
       inkscape:connector-curvature="0"
       inkscape:label="#path110" />
  </g>
  <g
     inkscape:groupmode="layer"
     id="layer39"
     inkscape:label="student-services-parking">
    <path
       inkscape:connector-curvature="0"
       id="student-services-parking"
       style="display:inline;fill:#d9d0c9;fill-rule:evenodd;stroke:#b9a99c;stroke-width:0.26458332"
       d="m 314.68409,222.13348 -20.74623,0.23283 0.32726,28.93608 20.74621,-0.23285 -0.0532,-4.64017 -0.22943,-20.39259 z"
       inkscape:label="#path110-0" />
  </g>
  <g
     inkscape:groupmode="layer"
     id="layer40"
     inkscape:label="bennette">
    <path
       inkscape:connector-curvature="0"
       id="bennette-center"
       style="fill:#d9d0c9;fill-rule:evenodd;stroke:#b9a99c;stroke-width:0.26458332"
       d="m 314.63513,217.8289 -26.62397,0.29945 0.39208,34.76759 5.87822,-0.0664 -0.0163,-1.52716 -0.3273,-28.93607 20.74612,-0.23235 z"
       inkscape:label="#path112-9" />
  </g>
  <g
     inkscape:groupmode="layer"
     id="layer41"
     inkscape:label="founders-college"
     style="display:inline">
    <path
       id="founders-college"
       transform="matrix(0.26458333,0,0,0.26458333,-527.81057,-27.231875)"
       style="fill:#d9d0c9;fill-rule:evenodd;stroke:#b9a99c;stroke-width:0.99999994"
       d="m 2854.5039,390.19141 -6.4082,0.041 0.035,6.44141 -17.3985,0.0859 0.1895,32.91992 13.707,-0.0781 0.061,12.30469 -33.5196,0.19922 0.025,3.33594 -9.5527,0.0469 0.016,4.98047 8.4063,-0.0605 0.031,3.61524 61.7227,-0.34961 -0.074,-13.08789 17.3418,-0.10547 c 0,0.001 0.01,-0.004 0.014,-0.002 v 0.002 l 0.2305,-0.002 v 0.0254 c 0.3205,-0.0265 0.7096,-0.0633 0.7265,-0.0645 0.313,-0.0236 0.5587,-0.0268 0.8145,-0.043 v -0.0645 c 0,-0.0677 -0.01,-0.13547 -0.012,-0.20312 0,-0.0775 -0.012,-0.15495 -0.016,-0.23243 -0.01,-0.0869 -0.013,-0.17478 -0.02,-0.26171 -0.01,-0.093 -0.012,-0.18632 -0.019,-0.2793 0,-0.0926 -0.012,-0.18513 -0.016,-0.27735 0,-0.0915 -0.019,-0.18196 -0.023,-0.27343 0,-0.093 -0.012,-0.18594 -0.016,-0.2793 0,-0.0907 -0.015,-0.18115 -0.021,-0.27148 -0.01,-0.0952 -0.014,-0.19187 -0.018,-0.28711 -0.01,-0.0979 -0.017,-0.1947 -0.019,-0.29297 -0.01,-0.10016 -0.014,-0.20024 -0.02,-0.30078 -0.01,-0.10129 -0.013,-0.2034 -0.02,-0.30469 -0.01,-0.0998 -0.014,-0.19905 -0.021,-0.29883 -0.01,-0.10393 -0.01,-0.20856 -0.016,-0.3125 -0.01,-0.10658 -0.015,-0.21215 -0.023,-0.31836 -0.01,-0.10802 -0.012,-0.21613 -0.016,-0.32422 0,-0.10394 -0.02,-0.20894 -0.025,-0.3125 0,-0.10281 -0.012,-0.20578 -0.016,-0.30859 0,-0.10318 -0.014,-0.20541 -0.02,-0.30859 l -0.023,-0.3125 c 0,-0.10583 6e-4,-0.21253 -0.012,-0.31836 0,-0.10205 -4e-4,-0.20459 -0.025,-0.30664 0,-0.0998 0,-0.19905 -0.016,-0.29883 0,-0.10885 -7e-4,-0.21732 0,-0.32617 v -0.31641 -0.30078 c 10e-5,-0.10545 6e-4,-0.21096 0,-0.31641 -5e-4,-0.10689 0,-0.21372 0,-0.32031 0,-0.11187 0,-0.22414 -0.012,-0.33594 0,-0.11377 0,-0.22804 -0.016,-0.3418 0,-0.11263 0,-0.22683 -0.019,-0.33984 0,-0.11149 0,-0.22248 -0.02,-0.33398 0,-0.11187 5e-4,-0.22406 -0.017,-0.33594 0,-0.11603 -5e-4,-0.23163 -0.022,-0.34766 0,-0.12057 0,-0.24279 -0.016,-0.36328 0,-0.12133 0,-0.24195 -0.024,-0.36328 0,-0.1217 8e-4,-0.24158 -0.018,-0.36328 0,-0.1251 -0.017,-0.25185 -0.02,-0.37695 0,-0.0857 -0.017,-0.17184 -0.019,-0.25782 -0.012,-6.2e-4 -0.038,-0.002 -0.047,-0.002 -0.3508,-0.0389 -0.7033,-0.0401 -1.0547,-0.0684 v 0.17578 l -16.4375,0.0879 -0.1855,-31.9082 -18.1563,0.11328 z"
       clip-path="url(#clipPath2433)"
       inkscape:connector-curvature="0" />
  </g>
  <g
     inkscape:groupmode="layer"
     id="layer44"
     inkscape:label="vanier-college"
     style="display:inline">
    <path
       inkscape:connector-curvature="0"
       id="vanier-college"
       style="fill:#d9d0c9;fill-rule:evenodd;stroke:#b9a99c;stroke-width:0.26458332"
       d="m 251.24136,96.65379 -10.05004,0.0259 -1.74821,0.0114 -1.72029,0.002 0.0372,13.79141 13.51957,-0.0413 z"
       inkscape:label="#path112-2" />
  </g>
  <g
     inkscape:groupmode="layer"
     id="layer46"
     inkscape:label="founders-res">
    <path
       id="founders-res"
       style="display:inline;fill:#d9d0c9;fill-rule:evenodd;stroke:#b9a99c;stroke-width:0.26458332"
       d="m 233.15868,69.803767 -1.27513,0.003 0.005,0.676615 -4.70377,0.01876 -3.9e-4,-0.550725 -1.16083,0.0039 0.001,0.622946 -4.80025,0.01791 -0.001,-0.717434 -1.29007,0.006 0.003,0.721305 -4.88327,0.01738 -0.002,-0.62472 -0.97486,0.0019 0.004,0.656705 -1.15464,0.0047 -0.0181,-4.875422 0.32019,-10e-4 -0.004,-1.333283 -4.00506,0.01515 0.004,1.009626 0.76044,-4.09e-4 0.0203,5.020366 -0.6858,0.0038 0.0116,3.11178 0.55172,2.9e-5 0.018,4.904031 -0.47453,3.18e-4 0.003,1.156132 0.56732,-0.0033 0.0216,5.175301 -0.70704,0.0043 0.005,0.975415 1.04771,-0.005 0.004,1.126351 -0.98773,0.0033 0.005,1.327549 0.70574,-0.0036 0.0179,4.839142 -0.44046,0.002 0.005,1.044573 3.62682,-0.01354 -0.0151,-3.360327 -0.005,-1.317265 -0.0102,-2.676341 -0.85352,0.0044 -0.003,-1.111975 0.74292,-0.0015 -0.0477,-12.25896 0.83642,-0.0069 0.003,0.729958 1.13007,-0.0058 -0.002,-0.852256 4.88915,-0.01721 0.003,0.649881 1.28932,-0.0035 -0.004,-0.652791 10.79547,-0.0401 0.002,0.755993 1.12337,-0.0051 z"
       inkscape:connector-curvature="0"
       inkscape:label="#path112-18" />
  </g>
  <g
     inkscape:groupmode="layer"
     id="layer47"
     inkscape:label="winters-res">
    <path
       inkscape:connector-curvature="0"
       id="winters-res"
       style="display:inline;fill:#d9d0c9;fill-rule:evenodd;stroke:#b9a99c;stroke-width:0.26458332"
       d="m 274.94193,70.869256 -5.099,0.04557 0.004,0.473547 -1.33926,0.01313 0.0379,4.338515 1.27324,-0.01232 0.006,0.579109 3.87082,-0.03821 0.008,1.070823 -0.9233,0.007 0.0128,1.59783 -0.54187,0.0038 0.0105,1.450918 1.15977,-0.009 0.0313,3.567545 -1.50269,0.01599 0.012,1.300893 0.60659,-0.0072 0.0145,1.560869 0.67259,-0.0064 0.009,0.834701 -3.52949,0.03121 0.002,0.34285 -1.43949,0.01044 0.0367,3.967569 1.21053,-0.01153 0.007,0.834703 5.39739,-0.04914 -0.004,-0.424039 1.17559,-0.01092 -0.0289,-3.121754 1.23307,-0.01232 -0.0149,-1.693088 0.62995,-0.004 -0.10484,-11.375031 -0.23772,0.0011 -0.0168,-1.807796 -1.25251,0.01033 -0.0239,-2.762596 -1.35385,0.01109 z"
       inkscape:label="#path112-18-7" />
  </g>
  <g
     inkscape:groupmode="layer"
     id="layer45"
     inkscape:label="vanier-res"
     style="display:inline">
    <path
       inkscape:connector-curvature="0"
       id="vanier-res"
       style="fill:#d9d0c9;fill-rule:evenodd;stroke:#b9a99c;stroke-width:0.26458332"
       d="m 236.67669,106.26684 -7.00687,-0.0701 0.0552,-5.46818 7.00906,0.0737 z"
       inkscape:label="#path116-6" />
  </g>
  <g
     inkscape:groupmode="layer"
     id="layer48"
     inkscape:label="tatham-hall"
     style="display:inline">
    <path
       inkscape:connector-curvature="0"
       id="tatham-hall"
       style="fill:#d9d0c9;fill-rule:evenodd;stroke:#b9a99c;stroke-width:0.26458332"
       d="m 262.03614,59.018621 -7.00687,-0.0701 0.0552,-5.46818 7.00906,0.0737 z"
       inkscape:label="#path116-6" />
  </g>
  <g
     inkscape:groupmode="layer"
     id="layer42"
     inkscape:label="mclaughlin-college"
     style="display:inline">
    <path
       id="mclaughlin-college"
       style="fill:#d9d0c9;fill-rule:evenodd;stroke:#b9a99c;stroke-width:0.26458332"
       d="m 601.60124,29.132621 -1.81394,0.01389 0.006,0.705867 -0.72176,0.0047 -0.006,-0.724341 -1.69296,0.0087 0.0204,3.080991 -0.71076,0.0059 0.01,1.867842 0.80004,-0.0061 0.005,0.774378 -0.76108,0.0062 0.0111,1.904427 0.78317,-0.0059 0.004,0.707546 -3.47406,0.02294 -0.003,-0.720152 -1.9196,0.01294 0.003,0.645117 -0.63481,0.0032 0.008,1.746119 0.43668,-0.0037 0.004,0.820013 -0.36115,-0.0013 0.008,1.884714 0.47971,-0.003 0.003,0.660818 -0.51291,0.0021 0.0124,1.815147 0.55359,-9.58e-4 0.004,0.839955 -0.39777,0.0054 0.009,1.596213 -1.57053,0.0094 0.0126,2.108079 -0.93913,0.0069 0.0676,11.573374 -4.34909,0.02345 -0.0485,-8.441989 -4.80485,0.02947 -0.0112,-1.725599 -1.6952,0.01076 0.009,1.704398 -4.60332,0.02246 0.0503,8.710035 3.62581,-0.02087 0.0162,3.255847 -8.86805,0.05279 0.004,0.882612 -2.52704,0.01312 0.005,1.317256 2.22421,-0.016 0.009,0.956391 16.33042,-0.09277 -0.0189,-3.462557 4.65271,-0.02844 0.005,1.586476 3.56682,-0.02053 0.0372,5.746386 1.74834,-0.01126 -0.0287,-5.198007 7.91272,-0.04766 -0.004,-0.933946 5.03838,-0.02994 -0.008,-1.404622 4.31502,-0.02522 0.0191,3.053564 7.92304,-0.04775 -0.0553,-9.096839 0.86889,-0.0035 -0.0137,-2.562316 -0.80444,0.0064 -0.0535,-8.979021 -7.77954,0.04514 0.0135,2.285082 -5.13574,0.02828 -0.005,-0.866587 -2.57533,0.01564 -0.0196,-3.038024 0.77937,-0.0022 0.003,0.647747 1.91851,-0.01111 -0.005,-0.745617 0.53058,-0.0015 0.007,0.67331 2.0373,-0.01262 -0.003,-0.647888 0.89544,-0.0072 -0.0148,-2.199549 1.58314,-0.0066 -0.0164,-2.685822 1.92728,-0.01167 -0.0294,-4.904241 -1.54519,0.06796 -0.0294,-1.105436 -2.03708,0.0013 -0.0301,5.256203 -5.30357,0.06289 -1.01903,0.0013 -0.007,-1.056956 -1.67141,0.0088 -0.0184,-2.782062 -0.50216,0.0021 -0.005,-0.570384 0.634,-0.0039 -0.0144,-2.00864 -0.73424,0.003 z m -3.22648,10.988302 -0.004,1.228071 0.88053,0.0044 -0.004,1.115256 2.49095,0.0077 -0.0205,4.671731 -1.25861,-0.0033 -2.2e-4,-0.331468 -1.26812,-0.004 -5.3e-4,0.373838 -1.09153,-0.0036 0.003,-0.791747 -1.38659,-0.0089 -0.004,0.824958 -1.4712,-0.0061 0.0322,-7.090187 z m 13.39858,11.545442 -0.0142,7.993215 -4.01887,-0.0085 0.0138,-7.991726 z"
       inkscape:connector-curvature="0"
       clip-path="url(#clipPath2577)"
       inkscape:label="#path110-6"
       transform="translate(-352.86087,25.874838)" />
  </g>
  <g
     inkscape:groupmode="layer"
     id="layer43"
     inkscape:label="winters-college">
    <g
       id="winters-college"
       inkscape:label="#g2671"
       transform="translate(-1.848596,-1.7126216)">
      <path
         inkscape:label="#path110-6"
         transform="translate(-55.80382,80.174789)"
         clip-path="url(#clipPath2625)"
         d="m 306.39486,-23.707762 -1.81394,0.014 0.006,0.70586 -0.72177,0.005 -0.006,-0.724321 -1.69297,0.009 0.0204,3.08099 -0.71075,0.006 0.01,1.86784 0.80004,-0.006 0.005,0.774381 -0.76109,0.006 0.0111,1.90441 0.78317,-0.006 0.004,0.70754 -3.47409,0.023 -0.003,-0.720151 -1.91958,0.0129 0.003,0.645131 -0.63485,0.003 0.008,1.746109 0.43667,-0.004 0.004,0.82002 -0.36113,-0.001 0.008,1.88473 0.47969,-0.003 0.003,0.66082 -0.51292,0.002 0.0124,1.81515 0.55363,-9.53e-4 0.004,0.839951 -0.39773,0.005 0.009,1.59621 -1.57054,0.009 0.0126,2.10805 -0.93912,0.007 0.0676,11.57336 -4.34908,0.02349 -0.0485,-8.44200001 -4.80483,0.0295 -0.0112,-1.72559999 -1.69515,0.0107 0.009,1.70439999 -4.60333,0.0225 0.0503,8.71002001 3.62582,-0.0208 0.0162,3.25583 -8.86804,0.0528 0.004,0.8826 -2.52704,0.0131 0.005,1.31726 2.22422,-0.01601 0.009,0.956378 16.33042,-0.0927 -0.0189,-3.46257 4.6527,-0.0284 0.005,1.586461 3.56681,-0.02051 0.0372,5.746372 1.74835,-0.01119 -0.0287,-5.198028 7.9127,-0.0477 -0.004,-0.933939 5.03838,-0.03 -0.008,-1.404612 4.31504,-0.02519 0.0191,3.053559 7.92301,-0.0477 -0.0553,-9.096851 0.86892,-0.004 -0.0137,-2.562331 -0.80444,0.006 -0.0535,-8.979031 -7.77949,0.0451 0.0135,2.28508 -5.13575,0.0283 -0.005,-0.86661 -2.57535,0.0157 -0.0195,-3.03803 0.77936,-0.002 0.003,0.64776 1.91849,-0.0111 -0.005,-0.74563 0.53057,-10e-4 0.007,0.673281 2.03731,-0.0126 -0.003,-0.64792 0.89544,-0.007 -0.0148,-2.19955 1.58313,-0.007 -0.0163,-2.68583 1.92727,-0.0117 -0.0293,-4.90424 -1.54519,0.0679 -0.0295,-1.10543 -2.03707,10e-4 -0.0301,5.2562 -5.30359,0.0629 -1.01901,10e-4 -0.007,-1.05695 -1.67141,0.009 -0.0183,-2.78208 -0.50215,0.002 -0.005,-0.57039 0.63397,-0.004 -0.0143,-2.00865 -0.73423,0.003 z m -3.22647,10.98832 -0.004,1.22806 0.88054,0.004 -0.004,1.11529 2.49092,0.008 -0.0206,4.67175 -1.25857,-0.003 -10e-4,-0.33151 -1.26811,-0.004 -5.3e-4,0.373849 -1.09155,-0.004 0.003,-0.79176 -1.38659,-0.009 -0.004,0.82493 -1.47117,-0.006 0.032,-7.09017 z m 13.39857,11.54542 -0.0142,7.99321 -4.01886,-0.009 0.0138,-7.991752 z"
         style="display:inline;fill:#d9d0c9;fill-rule:evenodd;stroke:#b9a99c;stroke-width:0.26458332"
         id="ppp"
         inkscape:connector-curvature="0" />
      <path
         clip-path="url(#clipPath2637-0)"
         d="m 301.42003,-4.99339 -1.81394,0.014 0.006,0.70586 -0.72177,0.005 -0.006,-0.72432 -1.69297,0.009 0.0204,3.0809899 -0.71075,0.006 0.01,1.86784009 0.80004,-0.006 0.005,0.7743801 -0.76109,0.006 0.0111,1.90441001 0.78317,-0.006 0.004,0.70754 -3.47409,0.023 -0.003,-0.7201501 -1.91958,0.012901 0.003,0.6451301 -0.63485,0.003 0.008,1.7461099 0.43667,-0.004 0.004,0.82002 -0.36113,-0.001 0.008,1.88473 0.47969,-0.003 0.003,0.66082 -0.51292,0.002 0.0124,1.81515 0.55363,-9.53e-4 0.004,0.839951 -0.39773,0.005 0.009,1.59621 -1.57054,0.009 0.0126,2.10805 -0.93912,0.007 0.0676,11.57336 -4.34908,0.02349 -0.0485,-8.442 -4.80483,0.0295 -0.0112,-1.7256 -1.69515,0.0107 0.009,1.7044 -4.60333,0.0225 0.0503,8.71002 3.62582,-0.0208 0.0162,3.25583 -8.86804,0.0528 0.004,0.8826 -2.52704,0.0131 0.005,1.31726 2.22422,-0.01601 0.009,0.956378 16.33042,-0.0927 -0.0189,-3.46257 4.6527,-0.0284 0.005,1.586461 3.56681,-0.02051 0.0372,5.746372 1.74835,-0.01119 -0.0287,-5.198028 7.9127,-0.0477 -0.004,-0.933939 5.03838,-0.03 -0.008,-1.404612 4.31504,-0.02519 0.0191,3.053559 7.92301,-0.0477 -0.0553,-9.096851 0.86892,-0.004 -0.0137,-2.562331 -0.80444,0.006 -0.0535,-8.979031 -7.77949,0.0451 0.0135,2.28508 -5.13575,0.0283 -0.005,-0.86661 -2.57535,0.0157 -0.0195,-3.03803 0.77936,-0.002 0.003,0.64776 1.91849,-0.0111 -0.005,-0.74563 0.53057,-0.001 0.007,0.673281 2.03731,-0.0126 -0.003,-0.64792 0.89544,-0.007 -0.0148,-2.19955 1.58313,-0.007 -0.0163,-2.68583 1.92727,-0.0117 -0.0293,-4.90424031 -1.54519,0.0679 -0.0295,-1.10543 -2.03707,0.00101 -0.0301,5.25620011 -5.30359,0.0629 -1.01901,0.00101 -0.007,-1.0569499 -1.67141,0.009 -0.0183,-2.78208031 -0.50215,0.00201 -0.005,-0.5703898 0.63397,-0.004 -0.0143,-2.00865019 -0.73423,0.003 z m -3.22647,10.988321 -0.004,1.22806 0.88054,0.004 -0.004,1.11529 2.49092,0.008 -0.0206,4.67175 -1.25857,-0.003 -10e-4,-0.33151 -1.26811,-0.004 -5.3e-4,0.373849 -1.09155,-0.004 0.003,-0.79176 -1.38659,-0.009 -0.004,0.82493 -1.47117,-0.006 0.032,-7.09017 z m 13.39857,11.54542 -0.0142,7.99321 -4.01886,-0.009 0.0138,-7.991752 z"
         style="display:inline;fill:#d9d0c9;fill-rule:evenodd;stroke:#b9a99c;stroke-width:0.26458332"
         id="path110-6"
         inkscape:connector-curvature="0"
         transform="translate(-50.82899,61.460415)" />
    </g>
  </g>
  <g
     inkscape:groupmode="layer"
     id="layer7"
     inkscape:label="schulich"
     style="display:inline">
    <path
       id="shulich"
       style="fill:#d9d0c9;fill-rule:evenodd;stroke:#b9a99c;stroke-width:0.26458332"
       d="m 323.50181,175.09725 -9.66587,2.73624 -10.82116,4.14837 -5.73652,2.08837 -8.80738,1.87621 -0.0364,24.90169 6.69581,-0.0416 -0.1808,-9.98261 4.81096,0.15288 5.72217,-0.15481 11.12482,0.22032 1.54301,-3.65635 -0.20808,-2.54876 2.6368,-7.75964 -4.38388,-0.39325 -3.37417,9.04248 -11.63238,-0.35735 -0.39515,-2.32556 -0.77836,-4.60811 21.07473,-8.0805 2.63554,-0.47868 z"
       inkscape:connector-curvature="0"
       inkscape:label="#path110" />
  </g>
  <g
     inkscape:groupmode="layer"
     id="layer8"
     inkscape:label="ace"
     style="display:inline">
    <path
       id="ace"
       style="fill:#d9d0c9;fill-rule:evenodd;stroke:#b9a99c;stroke-width:0.26458332"
       d="m 280.33261,184.93293 -8.51259,-0.0293 -14.50323,-0.048 -0.0893,26.47036 23.0178,0.0779 z"
       inkscape:connector-curvature="0"
       inkscape:label="#path110" />
  </g>
  <g
     inkscape:groupmode="layer"
     id="layer9"
     inkscape:label="york-lanes"
     style="display:inline">
    <path
       id="york-lanes"
       style="fill:#d9d0c9;fill-rule:evenodd;stroke:#b9a99c;stroke-width:0.26458332"
       d="m 266.40152,136.64082 -37.49899,0.35377 -1.02869,0.65567 -1.78978,-0.0222 0.0311,1.38969 -0.66641,0.49083 0.14512,3.2918 -0.72822,0.5758 0.0417,9.02516 41.84201,-0.32082 -0.0308,-1.39116 -0.36663,-0.0388 z"
       inkscape:connector-curvature="0"
       inkscape:label="#path110" />
  </g>
  <g
     inkscape:groupmode="layer"
     id="layer10"
     inkscape:label="vari-hall"
     style="display:inline">
    <path
       id="vari-hall"
       style="fill:#d9d0c9;fill-rule:evenodd;stroke:#b9a99c;stroke-width:0.26458332"
       d="m 199.62962,160.59814 -13.24763,0.29265 0.29295,12.93893 -1.29023,-0.0295 0.0714,1.92783 0.69766,-0.0419 0.33448,9.01565 0.23308,14.7899 3.38475,-0.17917 0.0147,0.5567 2.3357,0.24874 3.41419,-0.41034 -0.0242,-0.51978 3.42916,-0.0953 -0.41001,-13.00375 -0.46604,0.0715 -0.059,-1.01083 0.56362,-0.0485 -0.19452,-10.05662 -0.63755,0.0627 1.39239,-3.99426 -2.06058,-0.0176 -1.22586,-0.97255 0.61134,-0.82808 0.63333,-1.13547 1.37197,-0.78312 -0.16189,-1.05815 -1.37341,-0.0165 -0.73751,-1.5825 -0.99513,-0.90726 3.92429,-0.78589 z"
       inkscape:connector-curvature="0"
       inkscape:label="#path110" />
  </g>
  <g
     inkscape:groupmode="layer"
     id="layer11"
     inkscape:label="osgoode"
     style="display:inline">
    <path
       id="path110"
       style="fill:#d9d0c9;fill-rule:evenodd;stroke:#b9a99c;stroke-width:0.26458332"
       d="m 165.40195,222.29017 -27.74069,-0.19369 -0.0425,6.1946 17.96961,0.12143 -0.0207,2.68075 -17.92777,-0.1247 -0.0382,5.29508 3.84972,0.0267 -0.035,4.97395 13.15074,0.0891 -0.009,1.49503 10.70145,0.0735 0.008,-1.45202 0.0997,-14.42419 z"
       inkscape:connector-curvature="0" />
  </g>
  <g
     inkscape:groupmode="layer"
     id="layer36"
     inkscape:label="atkinson">
    <path
       id="atkinson"
       style="fill:#d9d0c9;fill-rule:evenodd;stroke:#b9a99c;stroke-width:0.26458332"
       d="m 201.56842,210.85788 -6.1162,-0.15347 0.11296,7.92518 -3.95397,0.0584 0.24739,17.21411 0.13394,9.25181 7.75047,-0.11211 0.0455,3.06083 6.40619,-0.0936 -0.10106,-6.94002 -4.48373,0.0651 -0.0675,2.37857 -4.57055,-0.0691 0.10874,-6.98048 1.79975,0.10343 -0.0328,-2.16507 -0.21208,-15.92628 2.89544,0.46668 z"
       inkscape:connector-curvature="0"
       inkscape:label="#path112-9" />
  </g>
  <g
     inkscape:groupmode="layer"
     id="layer37"
     inkscape:label="pond-res">
    <g
       id="pond-residance"
       inkscape:label="#g1491">
      <path
         inkscape:label="#path112-12"
         d="m 214.94764,255.19634 -15.41776,0.0486 0.006,1.51602 -2.29871,0.005 -0.017,-6.34272 -5.48861,0.0177 0.03,9.7997 27.00787,-0.0879 -0.0102,-3.24534 -3.80535,0.0125 z"
         style="fill:#d9d0c9;fill-rule:evenodd;stroke:#b9a99c;stroke-width:0.26458332"
         id="pond-res"
         inkscape:connector-curvature="0" />
      <path
         d="m 218.62768,246.77423 -3.97081,0.11882 0.26207,8.37013 0.0361,1.72372 3.80419,-0.0795 z"
         style="fill:#d9d0c9;fill-rule:evenodd;stroke:#b9a99c;stroke-width:0.26458332"
         id="path116"
         inkscape:connector-curvature="0" />
    </g>
  </g>
  <g
     inkscape:groupmode="layer"
     id="layer38"
     inkscape:label="atkinson-res">
    <path
       inkscape:connector-curvature="0"
       id="atkinson-res"
       style="fill:#d9d0c9;fill-rule:evenodd;stroke:#b9a99c;stroke-width:0.26458332"
       d="m 216.44586,217.05215 -3.65795,-0.0198 -0.14304,25.55115 3.67157,-0.34637 z"
       inkscape:label="#path112-7" />
  </g>
  <g
     inkscape:groupmode="layer"
     id="layer12"
     inkscape:label="ross"
     style="display:inline">
    <g
       id="ross"
       inkscape:label="#g10337"
       transform="matrix(0.92483432,0,0,1,14.014074,0)">
      <path
         inkscape:connector-curvature="0"
         d="m 179.97567,151.82554 -10.76999,-0.19749 1.09459,47.82514 11.65052,-0.23984 z"
         style="fill:#d9d0c9;fill-rule:evenodd;stroke:#b9a99c;stroke-width:0.36592758"
         id="path112" />
      <path
         sodipodi:nodetypes="ccccc"
         inkscape:connector-curvature="0"
         d="m 180.77701,164.56337 0.23075,5.81946 5.43468,-0.15573 -0.16191,-5.75989 z"
         style="display:inline;fill:#d9d0c9;fill-rule:evenodd;stroke:#b9a99c;stroke-width:0.16544682"
         id="path112-61" />
    </g>
  </g>
  <g
     inkscape:groupmode="layer"
     id="layer30"
     inkscape:label="lassonde"
     style="display:inline">
    <g
       id="g10356">
      <path
         inkscape:connector-curvature="0"
         inkscape:label="#path112-36"
         d="m 173.00283,121.5307 -11.37463,-0.17271 -0.29131,18.76762 11.37482,0.17385 z"
         style="fill:#d9d0c9;fill-rule:evenodd;stroke:#b9a99c;stroke-width:0.26458332"
         id="lassonde" />
      <path
         id="path112-61-8"
         style="display:inline;fill:#d9d0c9;fill-rule:evenodd;stroke:#b9a99c;stroke-width:0.07685659"
         d="m 157.37191,127.35767 -0.0479,5.39048 4.14097,0.0314 -0.0185,-5.46223 z"
         inkscape:connector-curvature="0"
         sodipodi:nodetypes="ccccc" />
    </g>
  </g>
  <g
     inkscape:groupmode="layer"
     id="layer13"
     inkscape:label="quad"
     style="display:inline">
    <path
       id="quad"
       style="fill:#d9d0c9;fill-rule:evenodd;stroke:#b9a99c;stroke-width:0.26458332"
       d="m 241.59315,269.95126 -22.18494,0.0418 0.006,4.54845 17.67712,-0.0312 0.0134,8.04057 -16.85347,0.0307 0.011,4.54525 21.36272,-0.0424 z m -29.61286,0.51164 -18.09386,0.43982 0.4192,17.23162 14.84509,-0.35832 -0.004,-0.27503 3.69616,-0.0901 -0.11552,-4.68418 -13.62716,0.32863 -0.18852,-7.82501 13.17671,-0.32045 z"
       inkscape:connector-curvature="0"
       inkscape:label="#path112-6" />
  </g>
  <g
     inkscape:groupmode="layer"
     id="layer14"
     inkscape:label="center-film-media"
     style="display:inline">
    <path
       id="path112-3"
       style="fill:#d9d0c9;fill-rule:evenodd;stroke:#b9a99c;stroke-width:0.26458332"
       d="m 250.53125,184.87147 -17.1893,-0.0286 -0.53292,16.43945 c 0.1258,0.15599 0.24646,0.31146 0.36588,0.46683 l 13.86867,0.0644 2.67281,2.65914 3.44258,-2.57717 -2.7934,-3.45478 z"
       inkscape:connector-curvature="0" />
  </g>
  <g
     inkscape:groupmode="layer"
     id="layer16"
     inkscape:label="burton-aud"
     style="display:inline">
    <path
       id="burton-aud"
       style="display:inline;fill:#d9d0c9;fill-rule:evenodd;stroke:#b9a99c;stroke-width:0.26458332"
       d="m 226.18748,184.57062 -0.76225,16.43049 c 0.12272,0.15846 0.24186,0.31503 0.35931,0.47183 l 6.99589,0.13009 c -0.004,-0.0371 -0.006,-0.0758 -0.002,-0.11698 8.7e-4,-0.012 0.007,-0.0231 0.008,-0.0343 -0.0407,-0.009 -0.0611,-0.0478 -0.0494,-0.13055 0.006,-0.0265 0.0158,-0.0645 0.0267,-0.10058 -0.01,-0.0399 0.009,-0.0975 0.0363,-0.16475 -0.002,-0.0192 -0.0103,-0.0502 -0.007,-0.038 0.005,0.0118 0.004,0.0234 0.008,0.0355 0.002,-0.004 0.001,-0.004 0.001,-0.007 0.004,-0.0663 0.0144,-0.13279 0.0264,-0.19893 -0.0132,-0.007 -0.0265,-0.0127 -0.0413,-0.0195 0.004,0.0147 0.0123,0.056 0.009,0.0424 -0.0203,-0.0703 -0.0407,-0.1409 -0.0621,-0.21098 -0.005,-0.0113 -0.005,-0.0208 -0.0102,-0.0314 -0.0294,-0.20067 -0.0229,-0.15853 -0.0204,-0.35229 0.005,-0.0941 0.0204,-0.18727 0.0268,-0.28115 0.002,-0.0239 -0.003,-0.0484 0.003,-0.0724 0.0161,-0.0821 0.0331,-0.16412 0.0579,-0.244 0.0243,-0.0781 0.0603,-0.15228 0.0904,-0.22834 0.0647,-0.27149 0.1514,-0.54053 0.17004,-0.82053 0.004,-0.0882 0.003,-0.27027 9e-4,-0.35436 -0.0108,-0.22012 0.0122,-0.43765 0.0244,-0.65693 0.0169,-0.35605 0.0318,-0.71251 0.0507,-1.06846 0.007,-0.1595 0.0159,-0.31897 0.0238,-0.47848 -0.003,-0.0679 0.0128,-0.13759 0.0107,-0.2054 2.9e-4,0.007 -2.2e-4,0.0176 -0.009,0.0184 -0.0114,0.004 -0.008,-0.0192 -0.0131,-0.0286 -0.007,-0.025 -0.0149,-0.0501 -0.0224,-0.0754 -0.0421,-0.20626 -0.0148,-0.40873 0.006,-0.61437 0.003,-0.0404 0.0103,-0.0807 0.0114,-0.12157 -2.9e-4,-0.007 -0.008,-0.0143 -0.01,-0.0204 -0.007,-0.0119 -0.004,-0.0258 -0.008,-0.039 -0.0154,-0.0205 -0.0351,-0.0373 -0.0483,-0.0593 -0.038,-0.0621 -0.0203,-0.13919 0.0109,-0.21262 -0.0118,-0.0151 0.006,-0.0526 0.009,-0.0763 0.002,-0.0864 0.0118,-0.17242 0.009,-0.25876 -5.3e-4,-0.006 -10e-4,-0.0197 -0.0106,-0.0159 -0.005,0.005 1.5e-4,0.0151 3.7e-4,0.0228 -0.0142,-0.0909 -0.0303,-0.14911 -0.0213,-0.23955 0.006,-0.0228 0.006,-0.0451 0.0128,-0.0676 -0.004,-0.007 -0.008,-0.0173 -0.007,-0.0267 -0.003,-0.006 0.006,0.0117 0.01,0.017 0.006,-0.0538 2.3e-4,-1.1e-4 -2.9e-4,-0.007 -0.0109,-0.0673 -0.0269,-0.13393 -0.0321,-0.20179 -0.004,-0.0539 0.0194,-0.1002 0.0188,-0.15222 0.002,-0.0957 0.006,-0.19133 0.011,-0.28714 0.003,-0.11866 0.0173,-0.20226 0.0442,-0.29897 0.002,-0.0399 0.005,-0.0799 0.008,-0.11854 0.001,-0.0222 0.002,-0.0437 0.006,-0.0655 -0.004,-0.0149 -0.007,-0.0337 -0.011,-0.0433 -0.008,-0.0287 -0.0101,-0.0593 -0.0148,-0.0888 -0.002,-0.10362 -0.005,-0.1255 -7.4e-4,-0.15312 -0.0105,-0.0654 -0.0189,-0.11136 -0.0226,-0.14283 -0.009,-0.0365 -0.0107,-0.0799 -0.0298,-0.20525 0.0102,-0.0788 0.0144,-0.0946 0.0188,-0.1274 -0.002,-0.007 -0.002,0.004 -0.005,-0.0169 4.2e-4,-0.0435 0.003,-0.0871 0.007,-0.13061 0.003,-0.0705 0.007,-0.14065 0.0109,-0.21109 l 0.004,-0.0611 c 0.001,-0.0352 0.004,-0.0704 0.005,-0.10533 -3e-5,-0.004 -3e-5,-0.004 -0.002,-0.005 -0.0134,-0.0236 -0.0284,-0.0462 -0.0332,-0.0723 -0.003,-0.0265 -0.004,-0.054 -0.006,-0.0805 -0.0401,-0.0538 -0.0578,-0.1117 -0.058,-0.17088 2.9e-4,-0.0821 0.0282,-0.16502 0.0575,-0.24244 0.005,-0.0641 0.0116,-0.1281 0.0114,-0.19242 8.7e-4,-0.0514 0.005,-0.10168 0.006,-0.15283 -2.9e-4,0.003 -10e-4,0.0104 2.9e-4,0.007 0.004,-0.10568 0.0109,-0.21121 0.0159,-0.31691 0.003,-0.0312 7.7e-4,-0.0631 0.006,-0.094 0.0112,-0.0786 0.0323,-0.19893 0.0636,-0.27981 0.002,-0.005 0.005,-0.0143 0.01,-0.0206 0.0117,-0.0599 0.0317,-0.12488 0.0529,-0.19823 -3e-5,-0.004 -0.003,-0.007 -0.002,-0.0106 5.8e-4,-0.0108 0.005,-0.0897 0.006,-0.10934 0.003,-0.0459 0.006,-0.0912 0.007,-0.13728 0.01,-0.12605 0.0526,-0.24765 0.0985,-0.36722 0.0404,-0.70299 0.0716,-1.40659 0.10226,-2.11004 0.0314,-0.80314 0.0705,-1.60534 0.11078,-2.40816 z m 6.89828,9.48834 c 3e-5,0.004 0.003,0.007 0.005,0.0118 0.005,-0.0182 0.007,-0.0363 0.0115,-0.0548 -0.002,0.009 -0.005,0.0344 -0.0107,0.0258 -2e-5,-0.004 -0.002,0.004 -10e-4,0.0174 z m 0.005,0.0118 c -10e-4,0.004 -10e-4,0.004 -5.8e-4,0.006 3e-5,0.004 0.006,0.0162 0.007,0.0119 -5.3e-4,-0.006 -0.003,-0.012 -0.006,-0.0177 z m -0.32323,7.14996 c 0.005,0.0246 0.0214,0.0444 0.0415,0.0616 -4.5e-4,-0.0196 -0.003,-0.0389 -0.001,-0.0587 -9e-5,-0.0324 -1.9e-4,-0.0645 -0.001,-0.0969 -0.003,-0.007 -0.008,-0.0159 -0.003,-0.0245 -0.009,0.0249 -0.008,0.0257 -0.0225,0.075 -0.004,0.0171 -0.008,0.0278 -0.0102,0.0435 z m 0.0342,-0.11836 c 0.002,-0.004 0.001,-0.007 0.003,-0.01 7.1e-4,-0.004 -2.9e-4,-0.007 4.2e-4,-0.0102 2.9e-4,0.007 -2.6e-4,0.0136 -0.006,0.0202 z m 0.003,-0.01 c -7.2e-4,0.004 0.002,0.007 1e-4,0.0121 7.1e-4,-0.004 1.9e-4,-0.009 -0.002,-0.0135 -2.1e-4,1e-5 -2.5e-4,1e-5 -0.001,0.004 z m 0.30581,-8.71692 c -10e-4,0.005 -5.8e-4,0.0108 -6.6e-4,0.0153 0.0101,-0.0379 0.0245,-0.0699 0.0628,-0.18522 -0.0357,0.0664 -0.0561,0.1163 -0.0627,0.17024 z m 0.13139,-2.47646 c 1.2e-4,0.0121 -0.001,0.0225 0.003,0.0384 0.004,0.0124 0.0108,0.0479 0.009,0.0354 -0.002,-0.0248 -0.008,-0.0493 -0.0103,-0.0741 z m -0.10574,2.68986 c 0.0155,0.0305 0.0372,0.0742 0.027,0.0564 -0.0184,-0.0329 -0.0167,-0.0375 -0.0261,-0.057 0.01,-0.0258 0.012,-0.0357 0.0317,-0.11219 0.001,-0.004 -0.002,0.004 -0.001,0.006 -0.0263,0.082 -0.0248,0.08 -0.0293,0.10684 z m -0.008,0.56357 c 7.9e-4,9e-5 0.004,7.1e-4 0.005,2.2e-4 7.1e-4,-0.004 -5.3e-4,-0.006 -0.002,-0.007 2e-4,-1e-5 -0.004,0.008 -0.003,0.009 z m -0.33769,7.66659 c -1e-4,1e-5 7.7e-4,0.004 3e-5,0.004 0.0407,-0.15301 0.0106,-0.0231 0.004,-0.0236 -0.001,0.002 2.2e-4,-0.005 -0.002,-0.007 2.9e-4,0.007 -2.3e-4,0.0177 -0.005,0.0263 z m 0.32158,-6.16024 c 0.0262,-0.0507 0.0549,-0.10399 0.0688,-0.1395 0.0168,-0.0436 -0.0448,0.0818 -0.0676,0.12303 -0.001,0.004 -8.5e-4,0.0119 -0.001,0.0167 z m -0.30255,6.41832 c 0.005,0.0136 0.005,0.0275 0.009,0.0415 0.0437,0.005 0.0615,0.0107 0.0898,0.013 0.0135,-0.0217 0.0241,-0.0437 0.039,-0.0665 0.0194,-0.0285 0.0338,-0.0601 0.0498,-0.0905 -0.038,-0.0166 -0.0775,-0.0297 -0.11525,-0.0457 -0.0505,0.0704 -0.0555,0.0897 -0.0718,0.14864 z m 0.31556,-6.09225 c 0.032,0.0754 0.0421,0.1655 0.0984,0.22458 l 5.6e-4,3e-5 c 0.001,-0.0414 0.002,-0.0829 0.003,-0.12407 -0.0359,-0.0323 -0.0709,-0.0652 -0.10177,-0.10108 z"
       inkscape:connector-curvature="0"
       inkscape:label="#path112-3-5" />
  </g>
  <g
     inkscape:groupmode="layer"
     id="layer18"
     inkscape:label="acw"
     style="display:inline">
    <path
       inkscape:connector-curvature="0"
       id="path112-6"
       style="display:inline;fill:#d9d0c9;fill-rule:evenodd;stroke:#b9a99c;stroke-width:0.26458332"
       d="m 221.63289,184.71124 -16.33248,0.19642 0.0854,7.68365 1.28775,2.66899 2.59091,-0.0204 4.51668,-2.26527 1.46708,0.0467 0.0487,0.73309 6.03175,0.14395 z" />
  </g>
  <g
     inkscape:groupmode="layer"
     id="layer19"
     inkscape:label="calumet-res"
     style="display:inline">
    <path
       id="calumet-res"
       style="fill:#d9d0c9;fill-rule:evenodd;stroke:#b9a99c;stroke-width:0.26458332"
       d="m 49.227699,138.6129 -4.214,-0.20154 0.07463,17.83932 21.132624,0.38525 0.166808,-6.78774 -2.941879,-0.0213 -0.01859,2.58742 -13.617384,-0.0978 -0.405574,-13.57823 c -0.06057,-0.0414 -0.118552,-0.0829 -0.176658,-0.12526 z"
       inkscape:connector-curvature="0"
       inkscape:label="#path112-2" />
  </g>
  <g
     inkscape:groupmode="layer"
     id="layer20"
     inkscape:label=" calumet-college"
     style="display:inline">
    <path
       id="calumet-college"
       style="fill:#d9d0c9;fill-rule:evenodd;stroke:#b9a99c;stroke-width:0.26458332"
       d="m 63.845288,131.42351 -11.481213,0.66742 -0.704637,2.36966 -2.255896,-0.34857 -0.175843,2.71494 10.883818,2.84012 1.186746,-3.26216 2.546165,-0.43771 z"
       inkscape:connector-curvature="0"
       inkscape:label="#path112-9" />
  </g>
  <g
     inkscape:groupmode="layer"
     id="layer22"
     inkscape:label="stong-college"
     style="display:inline">
    <path
       id="stong-college"
       style="fill:#d9d0c9;fill-rule:evenodd;stroke:#b9a99c;stroke-width:0.26458332"
       d="m 91.23748,143.1683 -22.450145,0.36945 0.393756,6.18896 16.956337,-0.98544 0.881449,10.98604 5.452778,-0.30923 z"
       inkscape:connector-curvature="0"
       inkscape:label="#path112-9" />
  </g>
  <g
     inkscape:groupmode="layer"
     id="layer23"
     inkscape:label="campus-walk"
     style="display:inline">
    <path
       inkscape:connector-curvature="0"
       style="display:inline;fill:none;stroke:#ffffff;stroke-width:1.16416669;stroke-linecap:round;stroke-linejoin:round;stroke-opacity:0.4"
       d="m 59.569433,142.30531 2.317379,-0.0533 30.513888,-0.73126 6.74688,-0.23023 18.29627,-0.4162 18.20448,-0.61305 -0.4534,4.95659 13.10983,-0.5227 10.16703,-0.40534 14.37146,-0.44817 8.33414,-2.20002 -0.33403,-6.6013 10.64173,-0.45753 13.10267,-0.12874 -0.30839,-12.82907 0.36738,-2.53743 0.50835,-2.16708 -0.18432,-8.72297 -0.94506,-9.88536"
       id="campus-walk"
       inkscape:label="#path618" />
  </g>
  <g
     inkscape:groupmode="layer"
     id="layer24"
     inkscape:label="bethune-res">
    <path
       id="path112-1"
       style="fill:#d9d0c9;fill-rule:evenodd;stroke:#b9a99c;stroke-width:0.26458332"
       d="m 91.34161,130.37067 -6.635253,0.20154 0.220141,7.35356 6.635771,-0.20102 z"
       inkscape:connector-curvature="0" />
  </g>
  <g
     inkscape:groupmode="layer"
     id="layer25"
     inkscape:label="chemistry- building"
     style="display:inline">
    <path
       id="path112-1-2"
       style="fill:#d9d0c9;fill-rule:evenodd;stroke:#b9a99c;stroke-width:0.26458332"
       d="m 107.21305,120.63586 -5.69864,0.17824 0.44001,14.97833 -0.52623,0.60279 -0.19501,0.67792 0.12677,0.50498 0.66987,0.45198 0.71272,0.0589 0.64699,-0.30954 0.45754,-0.56544 12.52551,0.0212 -0.0287,-4.5779 -1.09092,-0.0131 -0.01,-1.09183 -7.83161,0.32292 z"
       inkscape:connector-curvature="0" />
  </g>
  <g
     inkscape:groupmode="layer"
     id="layer26"
     inkscape:label="william-small-center"
     style="display:inline">
    <path
       id="william-small-center"
       style="display:inline;fill:#d9d0c9;fill-rule:evenodd;stroke:#b9a99c;stroke-width:0.26458332"
       d="m 128.27265,143.06634 -28.55393,1.08255 0.59757,15.74316 3.71996,-0.14224 -0.41306,-10.87096 24.73185,-0.40027 z"
       inkscape:connector-curvature="0"
       inkscape:label="#path112-1-2-7" />
  </g>
  <g
     inkscape:groupmode="layer"
     id="layer29"
     inkscape:label="stacie-library">
    <path
       id="stacie"
       style="fill:#d9d0c9;fill-rule:evenodd;stroke:#b9a99c;stroke-width:0.26458332"
       d="m 157.34031,123.38344 -18.38916,-0.10513 -0.097,17.23214 17.21067,0.0961 0.0272,-4.48302 1.17636,0.0105 z"
       inkscape:label="#path112-36"
       inkscape:connector-curvature="0" />
  </g>
  <g
     inkscape:groupmode="layer"
     id="layer31"
     inkscape:label="farquharson-life-science"
     style="display:inline">
    <g
       id="farquharson-life-science"
       inkscape:label="#g141">
      <path
         inkscape:connector-curvature="0"
         d="m 195.36542,122.03619 -18.54361,-0.0934 -0.78924,0.0526 c -0.0758,1.9479 -0.17605,4.30658 -0.34396,7.76821 -0.006,0.12943 -0.0159,0.25851 -0.0229,0.38788 l -0.081,4.71753 c 0.63547,0.22183 0.60223,0.22969 -0.001,0.0544 l -0.0517,3.00006 3.97988,0.0102 0.0172,-7.05972 15.8119,0.0417 z"
         style="fill:#d9d0c9;fill-rule:evenodd;stroke:#b9a99c;stroke-width:0.26458332"
         id="path112-06" />
      <path
         d="m 178.56581,116.17201 -1.4724,0.0183 0.0206,1.83594 -0.78722,0.009 -0.29422,3.96014 1.01827,-0.0118 0.31256,-2.37384 1.24305,-0.0126 z"
         style="display:inline;fill:#d9d0c9;fill-rule:evenodd;stroke:#b9a99c;stroke-width:0.26458332"
         id="path118"
         inkscape:connector-curvature="0" />
    </g>
  </g>
  <g
     inkscape:groupmode="layer"
     id="layer2"
     inkscape:label="lumbers">
    <path
       id="lumbers"
       style="fill:#d9d0c9;fill-rule:evenodd;stroke:#b9a99c;stroke-width:0.26458332"
       d="m 190.58846,105.24674 -16.23903,-0.21622 -0.14207,10.80808 6.60351,0.14632 1.46927,-0.10096 8.16605,0.16647 z"
       inkscape:connector-curvature="0"
       inkscape:label="#path112-36" />
  </g>
  <g
     inkscape:groupmode="layer"
     id="layer15"
     inkscape:label="behavioral-science-building">
    <path
       id="behavioral-science-building"
       style="fill:#d9d0c9;fill-rule:evenodd;stroke:#b9a99c;stroke-width:0.26458332"
       d="m 199.05363,142.1099 -11.68983,0.13286 0.14267,17.72199 11.9321,-0.26178 z"
       inkscape:connector-curvature="0"
       inkscape:label="#path112-7" />
  </g>
  <g
     inkscape:groupmode="layer"
     id="layer17"
     inkscape:label="student-center-old">
    <g
       id="student-center-old-group"
       inkscape:label="#g861">
      <g
         id="g840">
        <path
           id="student-center-old"
           style="fill:#d9d0c9;fill-rule:evenodd;stroke:#b9a99c;stroke-width:0.26458332"
           d="m 223.29723,142.50199 -14.51745,0.0754 -0.12985,2.44495 -7.06085,0.25476 -0.10048,6.50014 21.90173,0.47463 z"
           inkscape:connector-curvature="0"
           inkscape:label="#path112-5" />
        <path
           sodipodi:nodetypes="ccccc"
           inkscape:connector-curvature="0"
           d="m 199.16719,146.82206 0.0236,1.51997 2.29623,0.0237 0.0461,-1.56989 z"
           style="display:inline;fill:#d9d0c9;fill-rule:evenodd;stroke:#b9a99c;stroke-width:0.06300344"
           id="path112-61-3" />
      </g>
      <path
         sodipodi:nodetypes="ccccc"
         inkscape:connector-curvature="0"
         d="m 223.36322,148.34322 0.047,1.37965 1.45433,0.0237 -0.0474,-1.40619 z"
         style="display:inline;fill:#d9d0c9;fill-rule:evenodd;stroke:#b9a99c;stroke-width:0.06300344"
         id="path112-61-3-5" />
    </g>
  </g>
  <g
     inkscape:groupmode="layer"
     id="layer32"
     inkscape:label="curtis-lecture-hall"
     style="display:inline">
    <path
       id="curtis-lecture-hall"
       style="fill:#d9d0c9;fill-rule:evenodd;stroke:#b9a99c;stroke-width:0.26458332"
       d="m 167.79399,149.49738 -7.02661,0.14671 -0.15804,-0.30332 -5.93495,-0.29525 -0.2192,0.69111 -7.16557,-0.0253 -0.40809,1.88297 -0.99927,0.74887 -0.0556,1.45534 1.70082,2.16327 -0.48739,1.21698 -2.11633,-0.21429 -0.17696,3.59841 4.34035,0.18466 3.94272,-0.0727 16.92442,-0.0901 -0.84917,-8.61129 -1.01788,-0.19579 z"
       inkscape:connector-curvature="0"
       inkscape:label="#path112-2"
       inkscape:transform-center-x="0.75196936"
       inkscape:transform-center-y="1.6862237" />
  </g>
  <g
     inkscape:groupmode="layer"
     id="layer33"
     inkscape:label="scott-library"
     style="display:inline">
    <path
       id="scott-library"
       style="fill:#d9d0c9;fill-rule:evenodd;stroke:#b9a99c;stroke-width:0.26458332"
       d="m 150.88919,164.12386 -19.33143,0.047 0.0469,19.35415 19.47717,-0.0955 z"
       inkscape:connector-curvature="0"
       inkscape:label="#path112-2"
       sodipodi:nodetypes="ccccc" />
  </g>
  <g
     inkscape:groupmode="layer"
     id="layer34"
     inkscape:label="central-square"
     style="display:inline">
    <path
       inkscape:connector-curvature="0"
       style="fill:#dddde8;fill-rule:evenodd;stroke-width:0.37815034"
       d="m 150.82304,160.943 0.56844,30.27291 19.65516,0.002 -0.54278,-30.50438 z"
       id="central-square"
       sodipodi:nodetypes="ccccc"
       inkscape:label="#path216" />
  </g>
</svg>
